M48
;Layer_Color=6321
;FILE_FORMAT=2:5
INCH,LZ
;TYPE=PLATED
T1F00S00C0.01181
T3F00S00C0.03150
T4F00S00C0.13780
;TYPE=NON_PLATED
T5F00S00C0.05906
%
T01
X001378Y0014567
X0020472Y0014665
X0030315Y0017717
X0035433Y0018504
X004252Y0017323
X003937Y001378
X0040157Y0027953
X0049606Y0030709
X005Y0024409
X0062598Y0025984
Y0031496
X006811Y0031102
X0072835Y0027559
X0073622Y003937
X0080561Y0040699
X0087402Y0040551
X0084949Y0045669
X007559Y0050787
X0068504Y0052756
X0069685Y0064173
X0062992Y0066142
X0059842Y0060236
X0051575Y0053543
X0046654Y0045079
X0050787Y0040157
X0056693Y0038583
X0064961Y0040157
X0078347Y0061811
X0083465Y006275
X0087008Y0059055
X0092913Y0058268
X0098228Y0058071
X0095669Y0050394
X0108268Y0061811
X0119685Y0052756
X012126Y0042126
X0120079Y0035433
Y0029921
X0115354Y0025197
X0114173Y0020079
X0114655Y0010148
X0107087Y0009665
X0095276Y0010236
X0087795Y0020472
X0138583Y0025591
X0134646Y0034646
X0147244Y0035039
X0150787Y0038976
X0146446Y004291
X0146457Y0049213
X0141732Y0047244
X0136774Y0048249
X012874Y0048031
X0129134Y0043701
X0140157Y0054331
Y0058268
X0138976Y0064567
X0148819Y0065748
X0145276Y0073228
X0155512Y0082284
X0155511Y008622
X0148819Y0091338
X0147637Y009685
X0140921Y0095982
X0136987Y0092224
X0136516Y0083957
X0134646Y0099213
X0133071Y0105905
X0129134
X0134646Y0114173
X0142913Y0113779
X014252Y0121653
X0150394Y0122441
X0146063Y0127559
X0135433Y0132283
X0137795Y0143307
X0143307Y0144488
X0148819Y0144488
X0141002Y0149421
X011811Y0140157
X0123228Y0128347
X0085384Y0127953
X0086221Y0122441
X0080708Y0122047
X0061417Y0124803
X0058268
Y0129528
X0064961Y0129134
X0059646Y0117323
X0078347Y0096653
X0083858Y0098031
X0088189Y0094882
X0093307Y0094488
X0098032Y0089764
X0108346Y0090315
X0105905Y010315
X0142126Y0104331
X0148819Y0103543
X015Y0112205
X0155315Y004626
X0155709Y0030709
X0155511Y0026772
X015Y0018898
X0146457Y0012598
X0154724Y0007087
X0029921Y0031496
X0024532Y0035433
X0015354Y0042126
X0020017Y0049545
X0006693Y0050394
Y0055905
X0024409Y0067716
X0025984Y0082284
X0037795Y0088976
X0048031
X0022441Y0111024
X0008268Y0111417
X0025984Y0149606
X0030315
X0034646
X0038976
X0037008Y0152756
X0032283
X0028346Y0152362
X0025984Y0155512
X0034646
X003937Y0155905
X004252Y015315
X0044488Y015
X015748Y0140551
X015748Y0136614
X0169986Y0132877
X0174803Y0131102
X0178347
X0170079Y0143701
X0159842Y0122441
X016243Y0114628
X0163588Y0109875
X0168898Y009252
X0168504Y0088976
Y007874
Y007559
X0158268Y0067323
X0157087Y0059842
X0156496Y0055905
X0167717Y0050394
X016811Y0038189
Y0033858
X0168189Y0024478
X016811Y0019685
X0158661Y0012205
X0159449Y0157087
X0154724Y015748
X0151181Y0157874
X0146063
X014252Y0164961
X0134252
X0129921
X0125591Y0164173
X0151181Y0164961
X0041732Y0163386
X0042126Y0159449
X0037008Y0159055
X0036614Y0163386
X003189Y0162205
X0027165Y0163779
X0027559Y0159449
X0029921Y0156299
T03
X0008268Y0068504
Y0078504
X0018268Y0073504
Y0063504
X0022598Y0094488
X0012598
X0017598Y0104488
X0027598
X0046575Y0100236
X0056575
X0051575Y0110236
X0061575
X012189Y002311
Y001311
X013189Y001811
Y000811
T04
X0185039Y0161417
X0011811
T05
X0015354Y0084016
X0007087Y0101575
X0041063Y0107323
X0128976Y0028622
M30
