G04*
G04 #@! TF.GenerationSoftware,Altium Limited,CircuitMaker,2.0.3 (2.0.3.51)*
G04*
G04 Layer_Color=7318015*
%FSLAX25Y25*%
%MOIN*%
G70*
G04*
G04 #@! TF.SameCoordinates,446545F6-0083-4834-B6FB-C9FCCE3C903D*
G04*
G04*
G04 #@! TF.FilePolarity,Positive*
G04*
G01*
G75*
%ADD17R,0.03307X0.11378*%
%ADD18R,0.20079X0.16142*%
%ADD19R,0.20079X0.20079*%
%ADD20R,0.02756X0.04724*%
%ADD21R,0.02362X0.04724*%
%ADD22R,0.05905X0.05905*%
%ADD23R,0.07480X0.01968*%
%ADD24O,0.03150X0.10236*%
%ADD25R,0.02362X0.05118*%
%ADD26R,0.05118X0.02362*%
%ADD27O,0.10236X0.03150*%
%ADD28R,0.04331X0.04331*%
G04:AMPARAMS|DCode=29|XSize=13.78mil|YSize=27.56mil|CornerRadius=4.43mil|HoleSize=0mil|Usage=FLASHONLY|Rotation=90.000|XOffset=0mil|YOffset=0mil|HoleType=Round|Shape=RoundedRectangle|*
%AMROUNDEDRECTD29*
21,1,0.01378,0.01870,0,0,90.0*
21,1,0.00492,0.02756,0,0,90.0*
1,1,0.00886,0.00935,0.00246*
1,1,0.00886,0.00935,-0.00246*
1,1,0.00886,-0.00935,-0.00246*
1,1,0.00886,-0.00935,0.00246*
%
%ADD29ROUNDEDRECTD29*%
G04:AMPARAMS|DCode=30|XSize=13.78mil|YSize=27.56mil|CornerRadius=4.43mil|HoleSize=0mil|Usage=FLASHONLY|Rotation=180.000|XOffset=0mil|YOffset=0mil|HoleType=Round|Shape=RoundedRectangle|*
%AMROUNDEDRECTD30*
21,1,0.01378,0.01870,0,0,180.0*
21,1,0.00492,0.02756,0,0,180.0*
1,1,0.00886,-0.00246,0.00935*
1,1,0.00886,0.00246,0.00935*
1,1,0.00886,0.00246,-0.00935*
1,1,0.00886,-0.00246,-0.00935*
%
%ADD30ROUNDEDRECTD30*%
G04:AMPARAMS|DCode=31|XSize=137.8mil|YSize=19.68mil|CornerRadius=5.91mil|HoleSize=0mil|Usage=FLASHONLY|Rotation=90.000|XOffset=0mil|YOffset=0mil|HoleType=Round|Shape=RoundedRectangle|*
%AMROUNDEDRECTD31*
21,1,0.13780,0.00787,0,0,90.0*
21,1,0.12598,0.01968,0,0,90.0*
1,1,0.01181,0.00394,0.06299*
1,1,0.01181,0.00394,-0.06299*
1,1,0.01181,-0.00394,-0.06299*
1,1,0.01181,-0.00394,0.06299*
%
%ADD31ROUNDEDRECTD31*%
G04:AMPARAMS|DCode=32|XSize=65.94mil|YSize=19.68mil|CornerRadius=5.91mil|HoleSize=0mil|Usage=FLASHONLY|Rotation=90.000|XOffset=0mil|YOffset=0mil|HoleType=Round|Shape=RoundedRectangle|*
%AMROUNDEDRECTD32*
21,1,0.06594,0.00787,0,0,90.0*
21,1,0.05413,0.01968,0,0,90.0*
1,1,0.01181,0.00394,0.02707*
1,1,0.01181,0.00394,-0.02707*
1,1,0.01181,-0.00394,-0.02707*
1,1,0.01181,-0.00394,0.02707*
%
%ADD32ROUNDEDRECTD32*%
%ADD33R,0.04331X0.04331*%
%ADD34R,0.04331X0.03150*%
%ADD35R,0.06693X0.05118*%
%ADD36R,0.02756X0.05905*%
%ADD37R,0.19291X0.07480*%
D17*
X48031Y69980D02*
D03*
X43012Y83563D02*
D03*
Y69980D02*
D03*
X37992Y83563D02*
D03*
Y69980D02*
D03*
X48031Y83563D02*
D03*
X53051Y69882D02*
D03*
Y83563D02*
D03*
X58071Y69882D02*
D03*
Y83563D02*
D03*
D18*
X181496Y18110D02*
D03*
Y40748D02*
D03*
X181496Y69291D02*
D03*
Y91929D02*
D03*
X182677Y119488D02*
D03*
Y142126D02*
D03*
D19*
X18504Y133071D02*
D03*
X34252Y157874D02*
D03*
D20*
X24409Y13780D02*
D03*
X31890D02*
D03*
Y24016D02*
D03*
X24409D02*
D03*
D21*
X28150D02*
D03*
D22*
X15945Y7874D02*
D03*
X6299Y17126D02*
D03*
Y24606D02*
D03*
X15945Y33858D02*
D03*
D23*
X16634Y23425D02*
D03*
Y15748D02*
D03*
Y18307D02*
D03*
X16651Y20866D02*
D03*
X16634Y25984D02*
D03*
D24*
X73347Y66535D02*
D03*
X78347D02*
D03*
X83346D02*
D03*
X88346D02*
D03*
X93347D02*
D03*
X98347D02*
D03*
X103347D02*
D03*
X108346D02*
D03*
X73347Y85827D02*
D03*
X78347D02*
D03*
X83346D02*
D03*
X88346D02*
D03*
X93347D02*
D03*
X98347D02*
D03*
X103347D02*
D03*
X108346D02*
D03*
D25*
X72835Y45669D02*
D03*
X69685D02*
D03*
X66535D02*
D03*
X63386D02*
D03*
X60236D02*
D03*
X57087D02*
D03*
X53937D02*
D03*
X50787D02*
D03*
X72835Y12205D02*
D03*
X69685D02*
D03*
X66535D02*
D03*
X63386D02*
D03*
X60236D02*
D03*
X57087D02*
D03*
X53937D02*
D03*
X50787D02*
D03*
D26*
X78543Y39961D02*
D03*
Y36811D02*
D03*
Y33661D02*
D03*
Y30512D02*
D03*
Y27362D02*
D03*
Y24213D02*
D03*
Y21063D02*
D03*
Y17913D02*
D03*
X45079Y39961D02*
D03*
Y36811D02*
D03*
Y33661D02*
D03*
Y30512D02*
D03*
Y27362D02*
D03*
Y24213D02*
D03*
Y21063D02*
D03*
Y17913D02*
D03*
D27*
X91535Y45453D02*
D03*
Y40453D02*
D03*
Y35453D02*
D03*
Y30453D02*
D03*
Y25453D02*
D03*
Y20453D02*
D03*
Y15453D02*
D03*
Y10453D02*
D03*
X110827Y45453D02*
D03*
Y40453D02*
D03*
Y35453D02*
D03*
Y30453D02*
D03*
Y25453D02*
D03*
Y20453D02*
D03*
Y15453D02*
D03*
Y10453D02*
D03*
D28*
X141339Y12992D02*
D03*
Y19291D02*
D03*
X139764Y71260D02*
D03*
Y77559D02*
D03*
X25984Y74016D02*
D03*
Y80315D02*
D03*
X77559Y45669D02*
D03*
Y51968D02*
D03*
X120079Y47244D02*
D03*
Y40945D02*
D03*
X140551Y24803D02*
D03*
Y31102D02*
D03*
X151575Y12598D02*
D03*
Y18898D02*
D03*
X67716Y71260D02*
D03*
Y64961D02*
D03*
X83465Y126378D02*
D03*
Y132677D02*
D03*
X134252Y71260D02*
D03*
Y64961D02*
D03*
X140551Y42913D02*
D03*
Y36614D02*
D03*
X38976Y22835D02*
D03*
Y29134D02*
D03*
X136221Y127953D02*
D03*
Y121653D02*
D03*
X60236Y135827D02*
D03*
Y129528D02*
D03*
X21654Y49213D02*
D03*
Y42913D02*
D03*
D29*
X150787Y29724D02*
D03*
Y27756D02*
D03*
Y31693D02*
D03*
Y25787D02*
D03*
Y85236D02*
D03*
Y83268D02*
D03*
Y87205D02*
D03*
Y81299D02*
D03*
X152756Y139567D02*
D03*
Y137598D02*
D03*
Y141535D02*
D03*
Y135630D02*
D03*
D30*
Y23228D02*
D03*
X154724D02*
D03*
X156693D02*
D03*
X152756Y34252D02*
D03*
X154724D02*
D03*
X156693D02*
D03*
X152756Y78740D02*
D03*
X154724D02*
D03*
X156693D02*
D03*
X152756Y89764D02*
D03*
X154724D02*
D03*
X156693D02*
D03*
X154724Y133071D02*
D03*
X156693D02*
D03*
X158661D02*
D03*
X154724Y144095D02*
D03*
X156693D02*
D03*
X158661D02*
D03*
D31*
X159055Y28740D02*
D03*
X164567D02*
D03*
X159055Y84252D02*
D03*
X164567D02*
D03*
X161024Y138583D02*
D03*
X166535D02*
D03*
D32*
X161811Y25098D02*
D03*
Y32382D02*
D03*
Y80610D02*
D03*
Y87894D02*
D03*
X163779Y134941D02*
D03*
Y142224D02*
D03*
D33*
X46063Y51968D02*
D03*
X39764D02*
D03*
X140551Y132677D02*
D03*
X146850D02*
D03*
X10236Y111417D02*
D03*
X16535D02*
D03*
X141339Y7480D02*
D03*
X147638D02*
D03*
X28740Y29528D02*
D03*
X22441D02*
D03*
X46850Y12205D02*
D03*
X40551D02*
D03*
X45669Y46063D02*
D03*
X39370D02*
D03*
X51181Y117717D02*
D03*
X57480D02*
D03*
X95669Y51575D02*
D03*
X89370D02*
D03*
X135433Y90945D02*
D03*
X141732D02*
D03*
X128740Y129921D02*
D03*
X122441D02*
D03*
X122441Y135827D02*
D03*
X128740D02*
D03*
X151181Y71260D02*
D03*
X144882D02*
D03*
X153937Y127559D02*
D03*
X147638D02*
D03*
X7087Y42126D02*
D03*
X13386D02*
D03*
X70079Y51575D02*
D03*
X63779D02*
D03*
X135433Y85039D02*
D03*
X141732D02*
D03*
X159843Y51575D02*
D03*
X166142D02*
D03*
X161417Y153937D02*
D03*
X167717D02*
D03*
X72441Y94882D02*
D03*
X78740D02*
D03*
X151181Y117323D02*
D03*
X157480D02*
D03*
D34*
X16142Y50591D02*
D03*
Y46850D02*
D03*
Y54331D02*
D03*
X6693D02*
D03*
Y46850D02*
D03*
X66929Y129134D02*
D03*
Y125394D02*
D03*
Y132874D02*
D03*
X76378Y125394D02*
D03*
Y132874D02*
D03*
D35*
X127165Y115736D02*
D03*
Y104736D02*
D03*
X149606Y59831D02*
D03*
Y48831D02*
D03*
X141339Y59831D02*
D03*
Y48831D02*
D03*
X143307Y115736D02*
D03*
Y104736D02*
D03*
X137008Y153949D02*
D03*
Y164949D02*
D03*
X144882Y153949D02*
D03*
Y164949D02*
D03*
X133858Y59437D02*
D03*
Y48437D02*
D03*
X135433Y116130D02*
D03*
Y105130D02*
D03*
X153543Y153949D02*
D03*
Y164949D02*
D03*
D36*
X62992Y165354D02*
D03*
X58031D02*
D03*
X52992D02*
D03*
X48031D02*
D03*
D37*
X55512Y143307D02*
D03*
M02*
