G04*
G04 #@! TF.GenerationSoftware,Altium Limited,CircuitMaker,2.0.3 (2.0.3.51)*
G04*
G04 Layer_Physical_Order=3*
G04 Layer_Color=16765976*
%FSLAX25Y25*%
%MOIN*%
G70*
G04*
G04 #@! TF.SameCoordinates,446545F6-0083-4834-B6FB-C9FCCE3C903D*
G04*
G04*
G04 #@! TF.FilePolarity,Positive*
G04*
G01*
G75*
%ADD68C,0.05118*%
%ADD70C,0.02756*%
G36*
X181520Y168810D02*
X181618Y168310D01*
X181403Y168221D01*
X180146Y167381D01*
X179076Y166311D01*
X178236Y165054D01*
X177657Y163657D01*
X177362Y162173D01*
Y160661D01*
X177657Y159178D01*
X178236Y157781D01*
X179076Y156523D01*
X180146Y155454D01*
X181403Y154614D01*
X182800Y154035D01*
X184283Y153740D01*
X185795D01*
X187279Y154035D01*
X188676Y154614D01*
X189933Y155454D01*
X191003Y156523D01*
X191843Y157781D01*
X192421Y159178D01*
X192913Y159088D01*
Y4331D01*
X192520Y3937D01*
X103937D01*
Y44094D01*
X112992Y53150D01*
X116535D01*
Y79921D01*
X71260Y80312D01*
Y91147D01*
X70079Y91434D01*
Y119123D01*
X67716Y122835D01*
X3937D01*
Y159088D01*
X4429Y159178D01*
X5008Y157781D01*
X5848Y156523D01*
X6917Y155454D01*
X8174Y154614D01*
X9572Y154035D01*
X11055Y153740D01*
X12567D01*
X14050Y154035D01*
X15448Y154614D01*
X16705Y155454D01*
X17774Y156523D01*
X18614Y157781D01*
X19193Y159178D01*
X19488Y160661D01*
Y162173D01*
X19193Y163657D01*
X18614Y165054D01*
X17774Y166311D01*
X16705Y167381D01*
X15448Y168221D01*
X14050Y168799D01*
X12971Y169014D01*
X13021Y169514D01*
X181520Y168810D01*
D02*
G37*
G36*
X65462Y116021D02*
Y84131D01*
Y82084D01*
Y73895D01*
X109557D01*
X110344Y73107D01*
Y60509D01*
X97746Y47910D01*
X98533Y47123D01*
Y3816D01*
X4045D01*
Y4968D01*
X4545Y5342D01*
X4921Y5293D01*
X7677D01*
X8345Y5381D01*
X8968Y5639D01*
X9502Y6049D01*
X9912Y6583D01*
X10170Y7206D01*
X10258Y7874D01*
X10170Y8542D01*
X9912Y9165D01*
X9502Y9699D01*
X8968Y10109D01*
X8345Y10367D01*
X7677Y10455D01*
X4921D01*
X4545Y10406D01*
X4045Y10780D01*
Y30952D01*
X4545Y31327D01*
X4921Y31277D01*
X7677D01*
X8345Y31365D01*
X8968Y31623D01*
X9502Y32033D01*
X9912Y32568D01*
X10170Y33190D01*
X10258Y33858D01*
X10170Y34526D01*
X9912Y35149D01*
X9502Y35683D01*
X8968Y36094D01*
X8345Y36351D01*
X7677Y36439D01*
X4921D01*
X4545Y36390D01*
X4045Y36765D01*
Y49921D01*
X4528Y49963D01*
X4857Y49167D01*
X5466Y48558D01*
X6262Y48228D01*
X7124D01*
X7920Y48558D01*
X8529Y49167D01*
X8858Y49963D01*
Y50824D01*
X8529Y51620D01*
X7920Y52229D01*
X7124Y52559D01*
X6262D01*
X5466Y52229D01*
X4857Y51620D01*
X4528Y50824D01*
X4045Y50866D01*
Y98620D01*
X4545Y98827D01*
X4790Y98582D01*
X5643Y98089D01*
X6594Y97835D01*
X7579D01*
X8530Y98089D01*
X9383Y98582D01*
X10080Y99278D01*
X10572Y100131D01*
X10827Y101082D01*
Y102067D01*
X10572Y103018D01*
X10080Y103871D01*
X9383Y104568D01*
X8530Y105060D01*
X7579Y105315D01*
X6594D01*
X5643Y105060D01*
X4790Y104568D01*
X4545Y104322D01*
X4045Y104530D01*
Y113436D01*
X4401Y113787D01*
X21563Y113545D01*
X21659Y113043D01*
X21214Y112859D01*
X20605Y112250D01*
X20276Y111454D01*
Y110593D01*
X20605Y109797D01*
X21214Y109188D01*
X22010Y108858D01*
X22872D01*
X23667Y109188D01*
X24277Y109797D01*
X24606Y110593D01*
Y111454D01*
X24277Y112250D01*
X23667Y112859D01*
X23278Y113021D01*
X23381Y113519D01*
X32517Y113391D01*
X39084Y119958D01*
X61525D01*
X65462Y116021D01*
D02*
G37*
%LPC*%
G36*
X146494Y160039D02*
X145632D01*
X144836Y159710D01*
X144227Y159101D01*
X143898Y158305D01*
Y157443D01*
X144227Y156648D01*
X144836Y156038D01*
X145632Y155709D01*
X146494D01*
X147290Y156038D01*
X147899Y156648D01*
X148228Y157443D01*
Y158305D01*
X147899Y159101D01*
X147290Y159710D01*
X146494Y160039D01*
D02*
G37*
G36*
X151612D02*
X150750D01*
X149954Y159710D01*
X149345Y159101D01*
X149016Y158305D01*
Y157443D01*
X149345Y156648D01*
X149954Y156038D01*
X150750Y155709D01*
X151612D01*
X152408Y156038D01*
X152667Y156298D01*
X152889Y156254D01*
X153498Y155645D01*
X154294Y155315D01*
X155155D01*
X155951Y155645D01*
X156560Y156254D01*
X156783Y156793D01*
X157283Y156693D01*
Y156656D01*
X157613Y155860D01*
X158222Y155251D01*
X159018Y154921D01*
X159880D01*
X160675Y155251D01*
X161284Y155860D01*
X161614Y156656D01*
Y157517D01*
X161284Y158313D01*
X160675Y158922D01*
X159880Y159252D01*
X159018D01*
X158222Y158922D01*
X157613Y158313D01*
X157390Y157774D01*
X156890Y157873D01*
Y157911D01*
X156560Y158707D01*
X155951Y159316D01*
X155155Y159646D01*
X154294D01*
X153498Y159316D01*
X153238Y159056D01*
X153017Y159101D01*
X152408Y159710D01*
X151612Y160039D01*
D02*
G37*
G36*
X143738Y146653D02*
X142876D01*
X142080Y146324D01*
X141471Y145715D01*
X141142Y144919D01*
Y144058D01*
X141471Y143262D01*
X142080Y142652D01*
X142876Y142323D01*
X143738D01*
X144534Y142652D01*
X145143Y143262D01*
X145472Y144058D01*
Y144919D01*
X145143Y145715D01*
X144534Y146324D01*
X143738Y146653D01*
D02*
G37*
G36*
X149249Y146653D02*
X148388D01*
X147592Y146324D01*
X146983Y145714D01*
X146653Y144919D01*
Y144057D01*
X146983Y143261D01*
X147592Y142652D01*
X148388Y142323D01*
X149249D01*
X150045Y142652D01*
X150654Y143261D01*
X150984Y144057D01*
Y144919D01*
X150654Y145714D01*
X150045Y146324D01*
X149249Y146653D01*
D02*
G37*
G36*
X157911Y142716D02*
X157049D01*
X156253Y142387D01*
X155644Y141778D01*
X155315Y140982D01*
Y140120D01*
X155644Y139324D01*
X156060Y138909D01*
X156198Y138583D01*
X156060Y138256D01*
X155645Y137841D01*
X155315Y137045D01*
Y136184D01*
X155645Y135388D01*
X156254Y134778D01*
X157050Y134449D01*
X157911D01*
X158707Y134778D01*
X159316Y135388D01*
X159646Y136184D01*
Y137045D01*
X159316Y137841D01*
X158901Y138256D01*
X158763Y138582D01*
X158901Y138909D01*
X159316Y139324D01*
X159645Y140120D01*
Y140982D01*
X159316Y141778D01*
X158707Y142387D01*
X157911Y142716D01*
D02*
G37*
G36*
X150824Y124606D02*
X149963D01*
X149167Y124277D01*
X148558Y123668D01*
X148228Y122872D01*
Y122010D01*
X148558Y121214D01*
X149167Y120605D01*
X149963Y120276D01*
X150824D01*
X151620Y120605D01*
X152229Y121214D01*
X152559Y122010D01*
Y122872D01*
X152229Y123668D01*
X151620Y124277D01*
X150824Y124606D01*
D02*
G37*
G36*
X160273Y124606D02*
X159412D01*
X158616Y124276D01*
X158007Y123667D01*
X157677Y122871D01*
Y122010D01*
X158007Y121214D01*
X158616Y120605D01*
X159412Y120275D01*
X160273D01*
X161069Y120605D01*
X161678Y121214D01*
X162007Y122010D01*
Y122871D01*
X161678Y123667D01*
X161069Y124276D01*
X160273Y124606D01*
D02*
G37*
G36*
X142950Y123819D02*
X142089D01*
X141293Y123489D01*
X140684Y122880D01*
X140354Y122084D01*
Y121223D01*
X140684Y120427D01*
X141293Y119818D01*
X142089Y119488D01*
X142950D01*
X143746Y119818D01*
X144355Y120427D01*
X144685Y121223D01*
Y122084D01*
X144355Y122880D01*
X143746Y123489D01*
X142950Y123819D01*
D02*
G37*
G36*
X135076Y116339D02*
X134215D01*
X133419Y116009D01*
X132810Y115400D01*
X132480Y114604D01*
Y113742D01*
X132810Y112947D01*
X133419Y112338D01*
X134215Y112008D01*
X135076D01*
X135872Y112338D01*
X136481Y112947D01*
X136811Y113742D01*
Y114604D01*
X136481Y115400D01*
X135872Y116009D01*
X135076Y116339D01*
D02*
G37*
G36*
X143344Y115945D02*
X142483D01*
X141687Y115615D01*
X141078Y115006D01*
X140748Y114210D01*
Y113349D01*
X141078Y112553D01*
X141687Y111944D01*
X142483Y111614D01*
X143344D01*
X144140Y111944D01*
X144749Y112553D01*
X145079Y113349D01*
Y114210D01*
X144749Y115006D01*
X144140Y115615D01*
X143344Y115945D01*
D02*
G37*
G36*
X150431Y114370D02*
X149569D01*
X148773Y114040D01*
X148164Y113431D01*
X147835Y112635D01*
Y111774D01*
X148164Y110978D01*
X148773Y110369D01*
X149569Y110039D01*
X150431D01*
X151227Y110369D01*
X151836Y110978D01*
X152165Y111774D01*
Y112635D01*
X151836Y113431D01*
X151227Y114040D01*
X150431Y114370D01*
D02*
G37*
G36*
X149250Y105709D02*
X148388D01*
X147592Y105379D01*
X146983Y104770D01*
X146653Y103974D01*
Y103113D01*
X146983Y102317D01*
X147592Y101708D01*
X148388Y101378D01*
X149250D01*
X150046Y101708D01*
X150655Y102317D01*
X150984Y103113D01*
Y103974D01*
X150655Y104770D01*
X150046Y105379D01*
X149250Y105709D01*
D02*
G37*
G36*
X106336Y105315D02*
X105475D01*
X104679Y104985D01*
X104070Y104376D01*
X103740Y103580D01*
Y102719D01*
X104070Y101923D01*
X104679Y101314D01*
X105475Y100984D01*
X106336D01*
X107132Y101314D01*
X107741Y101923D01*
X108071Y102719D01*
Y103580D01*
X107741Y104376D01*
X107132Y104985D01*
X106336Y105315D01*
D02*
G37*
G36*
X84289Y100197D02*
X83427D01*
X82631Y99867D01*
X82022Y99258D01*
X81693Y98462D01*
Y97601D01*
X82022Y96805D01*
X82631Y96196D01*
X83427Y95866D01*
X84289D01*
X85085Y96196D01*
X85694Y96805D01*
X86023Y97601D01*
Y98462D01*
X85694Y99258D01*
X85085Y99867D01*
X84289Y100197D01*
D02*
G37*
G36*
X148068Y99015D02*
X147207D01*
X146411Y98686D01*
X145802Y98077D01*
X145472Y97281D01*
Y96420D01*
X145802Y95624D01*
X146411Y95015D01*
X147207Y94685D01*
X148068D01*
X148864Y95015D01*
X149473Y95624D01*
X149803Y96420D01*
Y97281D01*
X149473Y98077D01*
X148864Y98686D01*
X148068Y99015D01*
D02*
G37*
G36*
X88620Y97047D02*
X87758D01*
X86962Y96718D01*
X86353Y96109D01*
X86024Y95313D01*
Y94451D01*
X86353Y93655D01*
X86962Y93046D01*
X87758Y92716D01*
X88620D01*
X89416Y93046D01*
X90025Y93655D01*
X90354Y94451D01*
Y95313D01*
X90025Y96109D01*
X89416Y96718D01*
X88620Y97047D01*
D02*
G37*
G36*
X93738Y96653D02*
X92876D01*
X92080Y96324D01*
X91471Y95715D01*
X91142Y94919D01*
Y94058D01*
X91471Y93262D01*
X92080Y92652D01*
X92876Y92323D01*
X93738D01*
X94534Y92652D01*
X95143Y93262D01*
X95472Y94058D01*
Y94919D01*
X95143Y95715D01*
X94534Y96324D01*
X93738Y96653D01*
D02*
G37*
G36*
X149249Y93504D02*
X148388D01*
X147592Y93174D01*
X146983Y92565D01*
X146653Y91769D01*
Y90908D01*
X146983Y90112D01*
X147592Y89503D01*
X148388Y89173D01*
X149249D01*
X150045Y89503D01*
X150654Y90112D01*
X150984Y90908D01*
Y91769D01*
X150654Y92565D01*
X150045Y93174D01*
X149249Y93504D01*
D02*
G37*
G36*
X98462Y91929D02*
X97601D01*
X96805Y91600D01*
X96196Y90990D01*
X95866Y90194D01*
Y89333D01*
X96196Y88537D01*
X96805Y87928D01*
X97601Y87598D01*
X98462D01*
X99258Y87928D01*
X99867Y88537D01*
X100197Y89333D01*
Y90194D01*
X99867Y90990D01*
X99258Y91600D01*
X98462Y91929D01*
D02*
G37*
G36*
X155942Y88386D02*
X155081D01*
X154285Y88056D01*
X153676Y87447D01*
X153346Y86651D01*
Y85790D01*
X153676Y84994D01*
X154091Y84578D01*
X154229Y84252D01*
X154091Y83925D01*
X153676Y83510D01*
X153347Y82714D01*
Y81853D01*
X153676Y81057D01*
X154285Y80448D01*
X155081Y80118D01*
X155942D01*
X156738Y80448D01*
X157348Y81057D01*
X157677Y81853D01*
Y82714D01*
X157348Y83510D01*
X156932Y83925D01*
X156794Y84252D01*
X156932Y84579D01*
X157347Y84994D01*
X157677Y85790D01*
Y86651D01*
X157347Y87447D01*
X156738Y88056D01*
X155942Y88386D01*
D02*
G37*
G36*
X158698Y69488D02*
X157837D01*
X157041Y69159D01*
X156432Y68549D01*
X156102Y67753D01*
Y66892D01*
X156432Y66096D01*
X157041Y65487D01*
X157837Y65158D01*
X158698D01*
X159494Y65487D01*
X160103Y66096D01*
X160433Y66892D01*
Y67753D01*
X160103Y68549D01*
X159494Y69159D01*
X158698Y69488D01*
D02*
G37*
G36*
X149250Y67913D02*
X148388D01*
X147592Y67584D01*
X146983Y66975D01*
X146653Y66179D01*
Y65317D01*
X146983Y64521D01*
X147592Y63912D01*
X148388Y63583D01*
X149250D01*
X150046Y63912D01*
X150655Y64521D01*
X150984Y65317D01*
Y66179D01*
X150655Y66975D01*
X150046Y67584D01*
X149250Y67913D01*
D02*
G37*
G36*
X139407Y66732D02*
X138546D01*
X137750Y66403D01*
X137141Y65794D01*
X136811Y64998D01*
Y64136D01*
X137141Y63340D01*
X137750Y62731D01*
X138546Y62402D01*
X139407D01*
X140203Y62731D01*
X140812Y63340D01*
X141142Y64136D01*
Y64998D01*
X140812Y65794D01*
X140203Y66403D01*
X139407Y66732D01*
D02*
G37*
G36*
X157517Y62008D02*
X156656D01*
X155860Y61678D01*
X155251Y61069D01*
X154921Y60273D01*
Y59412D01*
X155251Y58616D01*
X155492Y58375D01*
X155375Y57785D01*
X155270Y57741D01*
X154660Y57132D01*
X154331Y56336D01*
Y55475D01*
X154660Y54679D01*
X155270Y54070D01*
X156065Y53740D01*
X156927D01*
X157723Y54070D01*
X158332Y54679D01*
X158661Y55475D01*
Y56336D01*
X158332Y57132D01*
X158090Y57373D01*
X158208Y57963D01*
X158313Y58007D01*
X158922Y58616D01*
X159252Y59412D01*
Y60273D01*
X158922Y61069D01*
X158313Y61678D01*
X157517Y62008D01*
D02*
G37*
G36*
X140588Y60433D02*
X139727D01*
X138931Y60103D01*
X138322Y59494D01*
X137992Y58698D01*
Y57837D01*
X138322Y57041D01*
X138737Y56626D01*
X138875Y56299D01*
X138737Y55973D01*
X138322Y55557D01*
X137992Y54761D01*
Y53900D01*
X138322Y53104D01*
X138931Y52495D01*
X139727Y52165D01*
X140588D01*
X141384Y52495D01*
X141993Y53104D01*
X142323Y53900D01*
Y54761D01*
X141993Y55557D01*
X141578Y55973D01*
X141440Y56299D01*
X141578Y56626D01*
X141993Y57041D01*
X142323Y57837D01*
Y58698D01*
X141993Y59494D01*
X141384Y60103D01*
X140588Y60433D01*
D02*
G37*
G36*
X120116Y54921D02*
X119254D01*
X118458Y54592D01*
X117849Y53983D01*
X117520Y53187D01*
Y52325D01*
X117849Y51529D01*
X118458Y50920D01*
X119254Y50591D01*
X120116D01*
X120912Y50920D01*
X121521Y51529D01*
X121850Y52325D01*
Y53187D01*
X121521Y53983D01*
X120912Y54592D01*
X120116Y54921D01*
D02*
G37*
G36*
X146876Y45075D02*
X146015D01*
X145219Y44746D01*
X144610Y44137D01*
X144280Y43341D01*
Y42479D01*
X144610Y41683D01*
X145219Y41074D01*
X146015Y40745D01*
X146876D01*
X147672Y41074D01*
X148281Y41683D01*
X148611Y42479D01*
Y43341D01*
X148281Y44137D01*
X147672Y44746D01*
X146876Y45075D01*
D02*
G37*
G36*
X151218Y41142D02*
X150357D01*
X149561Y40812D01*
X148952Y40203D01*
X148622Y39407D01*
Y38546D01*
X148952Y37750D01*
X149561Y37141D01*
X150357Y36811D01*
X151218D01*
X152014Y37141D01*
X152623Y37750D01*
X152953Y38546D01*
Y39407D01*
X152623Y40203D01*
X152014Y40812D01*
X151218Y41142D01*
D02*
G37*
G36*
X120509Y37598D02*
X119648D01*
X118852Y37269D01*
X118243Y36660D01*
X117913Y35864D01*
Y35002D01*
X118243Y34207D01*
X118852Y33597D01*
X119648Y33268D01*
X120509D01*
X121305Y33597D01*
X121914Y34207D01*
X122244Y35002D01*
Y35864D01*
X121914Y36660D01*
X121305Y37269D01*
X120509Y37598D01*
D02*
G37*
G36*
X135076Y36811D02*
X134215D01*
X133419Y36481D01*
X132810Y35872D01*
X132480Y35076D01*
Y34215D01*
X132810Y33419D01*
X133419Y32810D01*
X134215Y32480D01*
X135076D01*
X135872Y32810D01*
X136481Y33419D01*
X136811Y34215D01*
Y35076D01*
X136481Y35872D01*
X135872Y36481D01*
X135076Y36811D01*
D02*
G37*
G36*
X120509Y32087D02*
X119648D01*
X118852Y31757D01*
X118243Y31148D01*
X117913Y30352D01*
Y29491D01*
X118243Y28695D01*
X118852Y28086D01*
X119648Y27756D01*
X120509D01*
X121305Y28086D01*
X121914Y28695D01*
X122244Y29491D01*
Y30352D01*
X121914Y31148D01*
X121305Y31757D01*
X120509Y32087D01*
D02*
G37*
G36*
X129469Y32362D02*
X128484D01*
X127533Y32107D01*
X126680Y31615D01*
X125984Y30918D01*
X125491Y30066D01*
X125236Y29114D01*
Y28130D01*
X125491Y27178D01*
X125984Y26326D01*
X126680Y25629D01*
X127533Y25137D01*
X128484Y24882D01*
X129469D01*
X130420Y25137D01*
X131273Y25629D01*
X131969Y26326D01*
X132462Y27178D01*
X132717Y28130D01*
Y29114D01*
X132462Y30066D01*
X131969Y30918D01*
X131273Y31615D01*
X130420Y32107D01*
X129469Y32362D01*
D02*
G37*
G36*
X156139Y32874D02*
X155278D01*
X154482Y32544D01*
X153873Y31935D01*
X153543Y31139D01*
Y30278D01*
X153873Y29482D01*
X154229Y29125D01*
X154283Y28627D01*
X154190Y28512D01*
X153676Y27998D01*
X153346Y27202D01*
Y26341D01*
X153676Y25545D01*
X154285Y24936D01*
X155081Y24606D01*
X155942D01*
X156738Y24936D01*
X157347Y25545D01*
X157677Y26341D01*
Y27202D01*
X157347Y27998D01*
X156991Y28355D01*
X156937Y28853D01*
X157030Y28968D01*
X157544Y29482D01*
X157874Y30278D01*
Y31139D01*
X157544Y31935D01*
X156935Y32544D01*
X156139Y32874D01*
D02*
G37*
G36*
X115785Y27362D02*
X114924D01*
X114128Y27033D01*
X113519Y26423D01*
X113189Y25628D01*
Y24766D01*
X113519Y23970D01*
X114128Y23361D01*
X114924Y23031D01*
X115785D01*
X116581Y23361D01*
X117190Y23970D01*
X117520Y24766D01*
Y25628D01*
X117190Y26423D01*
X116581Y27033D01*
X115785Y27362D01*
D02*
G37*
G36*
X114604Y22244D02*
X113742D01*
X112946Y21914D01*
X112337Y21305D01*
X112008Y20509D01*
Y19648D01*
X112337Y18852D01*
X112946Y18243D01*
X113742Y17913D01*
X114604D01*
X115400Y18243D01*
X116009Y18852D01*
X116338Y19648D01*
Y20509D01*
X116009Y21305D01*
X115400Y21914D01*
X114604Y22244D01*
D02*
G37*
G36*
X132330Y21457D02*
X131449D01*
X130598Y21229D01*
X129835Y20788D01*
X129212Y20165D01*
X128771Y19402D01*
X128543Y18551D01*
Y17670D01*
X128771Y16819D01*
X129212Y16056D01*
X129835Y15432D01*
X130598Y14992D01*
X131449Y14764D01*
X132330D01*
X133181Y14992D01*
X133944Y15432D01*
X134568Y16056D01*
X135008Y16819D01*
X135236Y17670D01*
Y18551D01*
X135008Y19402D01*
X134568Y20165D01*
X133944Y20788D01*
X133181Y21229D01*
X132330Y21457D01*
D02*
G37*
G36*
X146887Y14764D02*
X146026D01*
X145230Y14434D01*
X144621Y13825D01*
X144291Y13029D01*
Y12168D01*
X144621Y11372D01*
X145230Y10763D01*
X146026Y10433D01*
X146887D01*
X147683Y10763D01*
X148292Y11372D01*
X148622Y12168D01*
Y13029D01*
X148292Y13825D01*
X147683Y14434D01*
X146887Y14764D01*
D02*
G37*
G36*
X159092Y14370D02*
X158230D01*
X157434Y14040D01*
X156825Y13431D01*
X156496Y12635D01*
Y11774D01*
X156825Y10978D01*
X157434Y10369D01*
X158230Y10039D01*
X159092D01*
X159888Y10369D01*
X160497Y10978D01*
X160826Y11774D01*
Y12635D01*
X160497Y13431D01*
X159888Y14040D01*
X159092Y14370D01*
D02*
G37*
G36*
X122330Y16457D02*
X121449D01*
X120598Y16229D01*
X119835Y15788D01*
X119212Y15165D01*
X118771Y14402D01*
X118543Y13551D01*
Y12670D01*
X118771Y11819D01*
X119212Y11056D01*
X119835Y10432D01*
X120598Y9992D01*
X121449Y9764D01*
X122330D01*
X123181Y9992D01*
X123944Y10432D01*
X124568Y11056D01*
X125008Y11819D01*
X125236Y12670D01*
Y13551D01*
X125008Y14402D01*
X124568Y15165D01*
X123944Y15788D01*
X123181Y16229D01*
X122330Y16457D01*
D02*
G37*
G36*
X155155Y9252D02*
X154294D01*
X153498Y8922D01*
X152889Y8313D01*
X152559Y7517D01*
Y6656D01*
X152889Y5860D01*
X153498Y5251D01*
X154294Y4921D01*
X155155D01*
X155951Y5251D01*
X156560Y5860D01*
X156890Y6656D01*
Y7517D01*
X156560Y8313D01*
X155951Y8922D01*
X155155Y9252D01*
D02*
G37*
G36*
X132330Y11457D02*
X131449D01*
X130598Y11229D01*
X129835Y10788D01*
X129212Y10165D01*
X128771Y9402D01*
X128543Y8551D01*
Y7670D01*
X128771Y6819D01*
X129212Y6055D01*
X129835Y5432D01*
X130598Y4992D01*
X131449Y4764D01*
X132330D01*
X133181Y4992D01*
X133944Y5432D01*
X134568Y6055D01*
X135008Y6819D01*
X135236Y7670D01*
Y8551D01*
X135008Y9402D01*
X134568Y10165D01*
X133944Y10788D01*
X133181Y11229D01*
X132330Y11457D01*
D02*
G37*
G36*
X62015Y113583D02*
X61134D01*
X60283Y113355D01*
X59520Y112914D01*
X58897Y112291D01*
X58456Y111528D01*
X58228Y110677D01*
Y109796D01*
X58456Y108944D01*
X58897Y108181D01*
X59520Y107558D01*
X60283Y107118D01*
X61134Y106890D01*
X62015D01*
X62866Y107118D01*
X63630Y107558D01*
X64253Y108181D01*
X64693Y108944D01*
X64921Y109796D01*
Y110677D01*
X64693Y111528D01*
X64253Y112291D01*
X63630Y112914D01*
X62866Y113355D01*
X62015Y113583D01*
D02*
G37*
G36*
X52015D02*
X51134D01*
X50283Y113355D01*
X49520Y112914D01*
X48897Y112291D01*
X48456Y111528D01*
X48228Y110677D01*
Y109796D01*
X48456Y108944D01*
X48897Y108181D01*
X49520Y107558D01*
X50283Y107118D01*
X51134Y106890D01*
X52015D01*
X52867Y107118D01*
X53630Y107558D01*
X54253Y108181D01*
X54693Y108944D01*
X54921Y109796D01*
Y110677D01*
X54693Y111528D01*
X54253Y112291D01*
X53630Y112914D01*
X52867Y113355D01*
X52015Y113583D01*
D02*
G37*
G36*
X41555Y111063D02*
X40571D01*
X39619Y110808D01*
X38767Y110316D01*
X38070Y109619D01*
X37578Y108766D01*
X37323Y107815D01*
Y106830D01*
X37578Y105879D01*
X38070Y105026D01*
X38767Y104330D01*
X39619Y103838D01*
X40571Y103583D01*
X41555D01*
X42507Y103838D01*
X43360Y104330D01*
X44056Y105026D01*
X44548Y105879D01*
X44803Y106830D01*
Y107815D01*
X44548Y108766D01*
X44056Y109619D01*
X43360Y110316D01*
X42507Y110808D01*
X41555Y111063D01*
D02*
G37*
G36*
X28039Y107835D02*
X27158D01*
X26307Y107607D01*
X25544Y107166D01*
X24921Y106543D01*
X24480Y105780D01*
X24252Y104929D01*
Y104048D01*
X24480Y103197D01*
X24921Y102433D01*
X25544Y101810D01*
X26307Y101370D01*
X27158Y101142D01*
X28039D01*
X28890Y101370D01*
X29653Y101810D01*
X30276Y102433D01*
X30717Y103197D01*
X30945Y104048D01*
Y104929D01*
X30717Y105780D01*
X30276Y106543D01*
X29653Y107166D01*
X28890Y107607D01*
X28039Y107835D01*
D02*
G37*
G36*
X18039D02*
X17158D01*
X16307Y107607D01*
X15544Y107166D01*
X14921Y106543D01*
X14480Y105780D01*
X14252Y104929D01*
Y104048D01*
X14480Y103197D01*
X14921Y102433D01*
X15544Y101810D01*
X16307Y101370D01*
X17158Y101142D01*
X18039D01*
X18890Y101370D01*
X19653Y101810D01*
X20276Y102433D01*
X20717Y103197D01*
X20945Y104048D01*
Y104929D01*
X20717Y105780D01*
X20276Y106543D01*
X19653Y107166D01*
X18890Y107607D01*
X18039Y107835D01*
D02*
G37*
G36*
X57015Y103583D02*
X56134D01*
X55283Y103355D01*
X54520Y102914D01*
X53897Y102291D01*
X53456Y101528D01*
X53228Y100677D01*
Y99796D01*
X53456Y98944D01*
X53897Y98181D01*
X54520Y97558D01*
X55283Y97118D01*
X56134Y96890D01*
X57015D01*
X57867Y97118D01*
X58630Y97558D01*
X59253Y98181D01*
X59693Y98944D01*
X59921Y99796D01*
Y100677D01*
X59693Y101528D01*
X59253Y102291D01*
X58630Y102914D01*
X57867Y103355D01*
X57015Y103583D01*
D02*
G37*
G36*
X23039Y97835D02*
X22158D01*
X21307Y97607D01*
X20544Y97166D01*
X19921Y96543D01*
X19480Y95780D01*
X19252Y94929D01*
Y94048D01*
X19480Y93196D01*
X19921Y92433D01*
X20544Y91810D01*
X21307Y91370D01*
X22158Y91142D01*
X23039D01*
X23890Y91370D01*
X24653Y91810D01*
X25276Y92433D01*
X25717Y93196D01*
X25945Y94048D01*
Y94929D01*
X25717Y95780D01*
X25276Y96543D01*
X24653Y97166D01*
X23890Y97607D01*
X23039Y97835D01*
D02*
G37*
G36*
X15847Y87756D02*
X14862D01*
X13911Y87501D01*
X13058Y87009D01*
X12361Y86312D01*
X11869Y85459D01*
X11614Y84508D01*
Y83523D01*
X11869Y82572D01*
X12361Y81719D01*
X13058Y81023D01*
X13911Y80531D01*
X14862Y80276D01*
X15847D01*
X16798Y80531D01*
X17651Y81023D01*
X18347Y81719D01*
X18840Y82572D01*
X19094Y83523D01*
Y84508D01*
X18840Y85459D01*
X18347Y86312D01*
X17651Y87009D01*
X16798Y87501D01*
X15847Y87756D01*
D02*
G37*
G36*
X18708Y76850D02*
X17827D01*
X16976Y76622D01*
X16213Y76182D01*
X15590Y75559D01*
X15149Y74796D01*
X14921Y73944D01*
Y73063D01*
X15149Y72212D01*
X15590Y71449D01*
X16213Y70826D01*
X16976Y70385D01*
X17827Y70157D01*
X18708D01*
X19559Y70385D01*
X20323Y70826D01*
X20946Y71449D01*
X21386Y72212D01*
X21614Y73063D01*
Y73944D01*
X21386Y74796D01*
X20946Y75559D01*
X20323Y76182D01*
X19559Y76622D01*
X18708Y76850D01*
D02*
G37*
G36*
X24840Y69882D02*
X23979D01*
X23183Y69552D01*
X22574Y68943D01*
X22244Y68147D01*
Y67286D01*
X22574Y66490D01*
X23183Y65881D01*
X23979Y65551D01*
X24840D01*
X25636Y65881D01*
X26245Y66490D01*
X26575Y67286D01*
Y68147D01*
X26245Y68943D01*
X25636Y69552D01*
X24840Y69882D01*
D02*
G37*
G36*
X8708Y71850D02*
X7827D01*
X6976Y71622D01*
X6213Y71182D01*
X5590Y70559D01*
X5149Y69796D01*
X4921Y68945D01*
Y68063D01*
X5149Y67212D01*
X5590Y66449D01*
X6213Y65826D01*
X6976Y65386D01*
X7827Y65158D01*
X8708D01*
X9559Y65386D01*
X10323Y65826D01*
X10946Y66449D01*
X11386Y67212D01*
X11614Y68063D01*
Y68945D01*
X11386Y69796D01*
X10946Y70559D01*
X10323Y71182D01*
X9559Y71622D01*
X8708Y71850D01*
D02*
G37*
G36*
X63423Y68307D02*
X62561D01*
X61766Y67977D01*
X61156Y67368D01*
X60827Y66572D01*
Y65711D01*
X61156Y64915D01*
X61766Y64306D01*
X62561Y63976D01*
X63423D01*
X64219Y64306D01*
X64828Y64915D01*
X65158Y65711D01*
Y66572D01*
X64828Y67368D01*
X64219Y67977D01*
X63423Y68307D01*
D02*
G37*
G36*
X83895Y64915D02*
X83034D01*
X82238Y64586D01*
X81629Y63977D01*
X81299Y63181D01*
Y62319D01*
X81629Y61523D01*
X82238Y60914D01*
X83034Y60585D01*
X83895D01*
X84691Y60914D01*
X85300Y61523D01*
X85630Y62319D01*
Y63181D01*
X85300Y63977D01*
X84691Y64586D01*
X83895Y64915D01*
D02*
G37*
G36*
X18708Y66850D02*
X17827D01*
X16976Y66622D01*
X16213Y66182D01*
X15590Y65559D01*
X15149Y64796D01*
X14921Y63945D01*
Y63063D01*
X15149Y62212D01*
X15590Y61449D01*
X16213Y60826D01*
X16976Y60386D01*
X17827Y60158D01*
X18708D01*
X19559Y60386D01*
X20323Y60826D01*
X20946Y61449D01*
X21386Y62212D01*
X21614Y63063D01*
Y63945D01*
X21386Y64796D01*
X20946Y65559D01*
X20323Y66182D01*
X19559Y66622D01*
X18708Y66850D01*
D02*
G37*
G36*
X60273Y62402D02*
X59412D01*
X58616Y62072D01*
X58007Y61463D01*
X57677Y60667D01*
Y59806D01*
X58007Y59010D01*
X58616Y58400D01*
X59412Y58071D01*
X60273D01*
X61069Y58400D01*
X61678Y59010D01*
X62008Y59806D01*
Y60667D01*
X61678Y61463D01*
X61069Y62072D01*
X60273Y62402D01*
D02*
G37*
G36*
X87438Y61220D02*
X86577D01*
X85781Y60891D01*
X85172Y60282D01*
X84842Y59486D01*
Y58624D01*
X85172Y57828D01*
X85781Y57219D01*
X86577Y56890D01*
X87438D01*
X88234Y57219D01*
X88843Y57828D01*
X89173Y58624D01*
Y59486D01*
X88843Y60282D01*
X88234Y60891D01*
X87438Y61220D01*
D02*
G37*
G36*
X93344Y60433D02*
X92483D01*
X91687Y60103D01*
X91078Y59494D01*
X90748Y58698D01*
Y57837D01*
X91078Y57041D01*
X91687Y56432D01*
X92483Y56102D01*
X93344D01*
X94140Y56432D01*
X94749Y57041D01*
X95079Y57837D01*
Y58698D01*
X94749Y59494D01*
X94140Y60103D01*
X93344Y60433D01*
D02*
G37*
G36*
X98659Y60236D02*
X97798D01*
X97002Y59907D01*
X96393Y59297D01*
X96063Y58502D01*
Y57640D01*
X96393Y56844D01*
X97002Y56235D01*
X97798Y55905D01*
X98659D01*
X99455Y56235D01*
X100064Y56844D01*
X100394Y57640D01*
Y58502D01*
X100064Y59297D01*
X99455Y59907D01*
X98659Y60236D01*
D02*
G37*
G36*
X52005Y55709D02*
X51144D01*
X50348Y55379D01*
X49739Y54770D01*
X49409Y53974D01*
Y53113D01*
X49739Y52317D01*
X50348Y51708D01*
X51144Y51378D01*
X52005D01*
X52801Y51708D01*
X53411Y52317D01*
X53740Y53113D01*
Y53974D01*
X53411Y54770D01*
X52801Y55379D01*
X52005Y55709D01*
D02*
G37*
G36*
X85379Y47835D02*
X84518D01*
X83722Y47505D01*
X83113Y46896D01*
X82783Y46100D01*
Y45239D01*
X83113Y44443D01*
X83722Y43834D01*
X84518Y43504D01*
X85379D01*
X86175Y43834D01*
X86784Y44443D01*
X87114Y45239D01*
Y46100D01*
X86784Y46896D01*
X86175Y47505D01*
X85379Y47835D01*
D02*
G37*
G36*
X65391Y42323D02*
X64530D01*
X63734Y41993D01*
X63125Y41384D01*
X62795Y40588D01*
Y39727D01*
X63125Y38931D01*
X63734Y38322D01*
X64530Y37992D01*
X65391D01*
X66187Y38322D01*
X66796Y38931D01*
X67126Y39727D01*
Y40588D01*
X66796Y41384D01*
X66187Y41993D01*
X65391Y42323D01*
D02*
G37*
G36*
X51218D02*
X50357D01*
X49561Y41993D01*
X48952Y41384D01*
X48622Y40588D01*
Y39727D01*
X48952Y38931D01*
X49561Y38322D01*
X50357Y37992D01*
X51218D01*
X52014Y38322D01*
X52623Y38931D01*
X52953Y39727D01*
Y40588D01*
X52623Y41384D01*
X52014Y41993D01*
X51218Y42323D01*
D02*
G37*
G36*
X74053Y41535D02*
X73191D01*
X72395Y41206D01*
X71786Y40597D01*
X71457Y39801D01*
Y38939D01*
X71786Y38144D01*
X72395Y37534D01*
X73191Y37205D01*
X74053D01*
X74849Y37534D01*
X75458Y38144D01*
X75787Y38939D01*
Y39801D01*
X75458Y40597D01*
X74849Y41206D01*
X74053Y41535D01*
D02*
G37*
G36*
X57124Y40748D02*
X56262D01*
X55466Y40418D01*
X54857Y39809D01*
X54528Y39013D01*
Y38152D01*
X54857Y37356D01*
X55466Y36747D01*
X56262Y36417D01*
X57124D01*
X57920Y36747D01*
X58529Y37356D01*
X58858Y38152D01*
Y39013D01*
X58529Y39809D01*
X57920Y40418D01*
X57124Y40748D01*
D02*
G37*
G36*
X24963Y37598D02*
X24102D01*
X23306Y37269D01*
X22697Y36660D01*
X22367Y35864D01*
Y35002D01*
X22697Y34207D01*
X23306Y33597D01*
X24102Y33268D01*
X24963D01*
X25759Y33597D01*
X26368Y34207D01*
X26698Y35002D01*
Y35864D01*
X26368Y36660D01*
X25759Y37269D01*
X24963Y37598D01*
D02*
G37*
G36*
X63029Y33661D02*
X62168D01*
X61372Y33332D01*
X60763Y32723D01*
X60433Y31927D01*
Y31065D01*
X60763Y30270D01*
X61372Y29660D01*
X62168Y29331D01*
X63029D01*
X63825Y29660D01*
X64434Y30270D01*
X64764Y31065D01*
Y31927D01*
X64434Y32723D01*
X63825Y33332D01*
X63029Y33661D01*
D02*
G37*
G36*
X68541Y33268D02*
X67679D01*
X66883Y32938D01*
X66274Y32329D01*
X65945Y31533D01*
Y30672D01*
X66274Y29876D01*
X66883Y29267D01*
X67679Y28937D01*
X68541D01*
X69337Y29267D01*
X69946Y29876D01*
X70275Y30672D01*
Y31533D01*
X69946Y32329D01*
X69337Y32938D01*
X68541Y33268D01*
D02*
G37*
G36*
X50037Y32874D02*
X49176D01*
X48380Y32544D01*
X47771Y31935D01*
X47441Y31139D01*
Y30278D01*
X47771Y29482D01*
X48380Y28873D01*
X49176Y28543D01*
X50037D01*
X50833Y28873D01*
X51442Y29482D01*
X51772Y30278D01*
Y31139D01*
X51442Y31935D01*
X50833Y32544D01*
X50037Y32874D01*
D02*
G37*
G36*
X73265Y29724D02*
X72404D01*
X71608Y29395D01*
X70999Y28786D01*
X70669Y27990D01*
Y27128D01*
X70999Y26333D01*
X71608Y25723D01*
X72404Y25394D01*
X73265D01*
X74061Y25723D01*
X74670Y26333D01*
X75000Y27128D01*
Y27990D01*
X74670Y28786D01*
X74061Y29395D01*
X73265Y29724D01*
D02*
G37*
G36*
X63029Y28150D02*
X62168D01*
X61372Y27820D01*
X60763Y27211D01*
X60433Y26415D01*
Y25554D01*
X60763Y24758D01*
X61372Y24149D01*
X62168Y23819D01*
X63029D01*
X63825Y24149D01*
X64434Y24758D01*
X64764Y25554D01*
Y26415D01*
X64434Y27211D01*
X63825Y27820D01*
X63029Y28150D01*
D02*
G37*
G36*
X88226Y22638D02*
X87365D01*
X86569Y22308D01*
X85960Y21699D01*
X85630Y20903D01*
Y20042D01*
X85960Y19246D01*
X86569Y18637D01*
X87365Y18307D01*
X88226D01*
X89022Y18637D01*
X89631Y19246D01*
X89961Y20042D01*
Y20903D01*
X89631Y21699D01*
X89022Y22308D01*
X88226Y22638D01*
D02*
G37*
G36*
X35864Y20669D02*
X35002D01*
X34206Y20340D01*
X33597Y19730D01*
X33268Y18935D01*
Y18073D01*
X33597Y17277D01*
X34206Y16668D01*
X35002Y16339D01*
X35864D01*
X36660Y16668D01*
X37269Y17277D01*
X37598Y18073D01*
Y18935D01*
X37269Y19730D01*
X36660Y20340D01*
X35864Y20669D01*
D02*
G37*
G36*
X30746Y19882D02*
X29884D01*
X29088Y19552D01*
X28479Y18943D01*
X28150Y18147D01*
Y17286D01*
X28479Y16490D01*
X29088Y15881D01*
X29884Y15551D01*
X30746D01*
X31541Y15881D01*
X32151Y16490D01*
X32480Y17286D01*
Y18147D01*
X32151Y18943D01*
X31541Y19552D01*
X30746Y19882D01*
D02*
G37*
%LPD*%
D68*
X8268Y78504D02*
D03*
X12598Y94488D02*
D03*
X46575Y100236D02*
D03*
X121890Y23110D02*
D03*
D70*
X48031Y88976D02*
D03*
X37795D02*
D03*
X44488Y150000D02*
D03*
X41732Y163386D02*
D03*
X36614D02*
D03*
X27165Y163779D02*
D03*
X163588Y109875D02*
D03*
X174803Y131102D02*
D03*
X50000Y24409D02*
D03*
X141002Y149421D02*
D03*
X78347Y61811D02*
D03*
X129134Y43701D02*
D03*
X121260Y42126D02*
D03*
X95669Y50394D02*
D03*
X123228Y128347D02*
D03*
X135433Y132283D02*
D03*
X137795Y143307D02*
D03*
X118110Y140157D02*
D03*
X136987Y92224D02*
D03*
X140921Y95982D02*
D03*
X6693Y55905D02*
D03*
X87402Y40551D02*
D03*
X80561Y40699D02*
D03*
X86221Y122441D02*
D03*
X114655Y10148D02*
D03*
X107087Y9665D02*
D03*
X125591Y164173D02*
D03*
X129921Y164961D02*
D03*
X31890Y162205D02*
D03*
X151181Y164961D02*
D03*
X142520D02*
D03*
X134252D02*
D03*
X69685Y64173D02*
D03*
X59646Y117323D02*
D03*
X80708Y122047D02*
D03*
X85384Y127953D02*
D03*
X20017Y49545D02*
D03*
X75590Y50787D02*
D03*
X40157Y27953D02*
D03*
X78347Y96653D02*
D03*
X108268Y61811D02*
D03*
X95276Y10236D02*
D03*
X68504Y52756D02*
D03*
X46654Y45079D02*
D03*
X39370Y13780D02*
D03*
X20472Y14665D02*
D03*
X13780Y14567D02*
D03*
X136516Y83957D02*
D03*
X141732Y47244D02*
D03*
X146457Y49213D02*
D03*
X147244Y35039D02*
D03*
X133071Y105905D02*
D03*
X150000Y18898D02*
D03*
X145276Y73228D02*
D03*
X108346Y90315D02*
D03*
X129134Y105905D02*
D03*
X134646Y99213D02*
D03*
X146063Y127559D02*
D03*
X155315Y46260D02*
D03*
X170079Y143701D02*
D03*
X169986Y132877D02*
D03*
X178347Y131102D02*
D03*
X162430Y114628D02*
D03*
X142126Y104331D02*
D03*
X168504Y78740D02*
D03*
Y75590D02*
D03*
Y88976D02*
D03*
X168898Y92520D02*
D03*
X167717Y50394D02*
D03*
X168110Y38189D02*
D03*
Y33858D02*
D03*
X168189Y24478D02*
D03*
X168110Y19685D02*
D03*
X136774Y48249D02*
D03*
X128740Y48031D02*
D03*
X138583Y25591D02*
D03*
X8268Y111417D02*
D03*
X25984Y82284D02*
D03*
X42520Y17323D02*
D03*
X29921Y31496D02*
D03*
X15354Y42126D02*
D03*
X64961Y129134D02*
D03*
X58268Y124803D02*
D03*
Y129528D02*
D03*
X61417Y124803D02*
D03*
X27559Y159449D02*
D03*
X37008Y159055D02*
D03*
X42126Y159449D02*
D03*
X29921Y156299D02*
D03*
X42520Y153150D02*
D03*
X25984Y149606D02*
D03*
X38976D02*
D03*
X30315D02*
D03*
X34646D02*
D03*
X39370Y155905D02*
D03*
X37008Y152756D02*
D03*
X32283D02*
D03*
X34646Y155512D02*
D03*
X25984D02*
D03*
X28346Y152362D02*
D03*
M02*
