G04*
G04 #@! TF.GenerationSoftware,Altium Limited,CircuitMaker,2.0.3 (2.0.3.51)*
G04*
G04 Layer_Physical_Order=4*
G04 Layer_Color=11436288*
%FSLAX25Y25*%
%MOIN*%
G70*
G04*
G04 #@! TF.SameCoordinates,446545F6-0083-4834-B6FB-C9FCCE3C903D*
G04*
G04*
G04 #@! TF.FilePolarity,Positive*
G04*
G01*
G75*
%ADD11C,0.01968*%
%ADD16C,0.01181*%
%ADD64C,0.01575*%
%ADD66C,0.01968*%
%ADD68C,0.05118*%
%ADD69O,0.06299X0.03543*%
%ADD70C,0.02756*%
%ADD71C,0.13780*%
G36*
X172441Y7480D02*
X156890D01*
Y7517D01*
X156560Y8313D01*
X156299Y8574D01*
Y17323D01*
X149606Y24016D01*
Y32677D01*
X154331Y37402D01*
Y43874D01*
X154746Y44152D01*
X154884Y44094D01*
X155746D01*
X156542Y44424D01*
X157151Y45033D01*
X157480Y45829D01*
Y46691D01*
X157151Y47486D01*
X156542Y48096D01*
X155746Y48425D01*
X154884D01*
X154746Y48368D01*
X154331Y48646D01*
Y50394D01*
X148311D01*
X148292Y50439D01*
X147683Y51048D01*
X146887Y51378D01*
X146026D01*
X145230Y51048D01*
X144621Y50439D01*
X144602Y50394D01*
X137255D01*
X137205Y50414D01*
X137008D01*
Y61417D01*
X172441D01*
Y7480D01*
D02*
G37*
G36*
X159449Y99213D02*
X164173Y94488D01*
Y75590D01*
Y67323D01*
X151969D01*
Y79134D01*
X150787Y99213D01*
X146063Y100787D01*
X145276Y101575D01*
Y107874D01*
X144882Y108268D01*
X132677D01*
Y117323D01*
X159449D01*
Y99213D01*
D02*
G37*
G36*
X166142Y122047D02*
X155136D01*
X154724Y122459D01*
Y149606D01*
X152756Y151575D01*
X142520D01*
Y159843D01*
X166142D01*
Y122047D01*
D02*
G37*
%LPC*%
G36*
X168147Y52559D02*
X167286D01*
X166490Y52229D01*
X165881Y51620D01*
X165551Y50824D01*
Y49963D01*
X165881Y49167D01*
X166490Y48558D01*
X167286Y48228D01*
X168147D01*
X168943Y48558D01*
X169552Y49167D01*
X169882Y49963D01*
Y50824D01*
X169552Y51620D01*
X168943Y52229D01*
X168147Y52559D01*
D02*
G37*
G36*
X168541Y40354D02*
X167680D01*
X166884Y40025D01*
X166274Y39416D01*
X165945Y38620D01*
Y37758D01*
X166274Y36962D01*
X166884Y36353D01*
X167026Y36294D01*
Y35753D01*
X166884Y35694D01*
X166274Y35085D01*
X165945Y34289D01*
Y33428D01*
X166274Y32632D01*
X166884Y32023D01*
X167680Y31693D01*
X168541D01*
X169337Y32023D01*
X169946Y32632D01*
X170276Y33428D01*
Y34289D01*
X169946Y35085D01*
X169337Y35694D01*
X169194Y35753D01*
Y36294D01*
X169337Y36353D01*
X169946Y36962D01*
X170276Y37758D01*
Y38620D01*
X169946Y39416D01*
X169337Y40025D01*
X168541Y40354D01*
D02*
G37*
G36*
X168620Y26643D02*
X167758D01*
X166962Y26313D01*
X166353Y25704D01*
X166024Y24908D01*
Y24047D01*
X166353Y23251D01*
X166962Y22642D01*
X167758Y22312D01*
X167680Y21850D01*
X166884Y21521D01*
X166274Y20912D01*
X165945Y20116D01*
Y19254D01*
X166274Y18459D01*
X166884Y17849D01*
X167680Y17520D01*
X168541D01*
X169337Y17849D01*
X169946Y18459D01*
X170276Y19254D01*
Y20116D01*
X169946Y20912D01*
X169337Y21521D01*
X168541Y21850D01*
X168620Y22312D01*
X169415Y22642D01*
X170025Y23251D01*
X170354Y24047D01*
Y24908D01*
X170025Y25704D01*
X169415Y26313D01*
X168620Y26643D01*
D02*
G37*
%LPD*%
D11*
X15354Y84016D02*
D03*
X7087Y101575D02*
D03*
X41063Y107323D02*
D03*
X128976Y28622D02*
D03*
D16*
X59842Y20472D02*
X87795D01*
X49606Y30709D02*
X59842Y20472D01*
X22835Y101969D02*
Y111024D01*
X63903Y22835D02*
X72565D01*
X63903Y22835D02*
X63903Y22835D01*
X61294Y22835D02*
X63903D01*
X59449Y24680D02*
X61294Y22835D01*
X59449Y24680D02*
Y25320D01*
X50911Y33858D02*
X59449Y25320D01*
X35433Y33858D02*
Y42126D01*
Y18504D02*
Y33858D01*
X150394Y122441D02*
X152755D01*
X156299Y118898D01*
X154331Y7087D02*
X154724Y6693D01*
X156299Y118898D02*
X165354D01*
X175591Y108661D01*
Y64173D02*
Y108661D01*
X148819Y65748D02*
X150394Y64173D01*
X175591D01*
Y5118D02*
Y64173D01*
X156693Y5118D02*
X175591D01*
X154724Y7087D02*
X156693Y5118D01*
X154724Y6693D02*
Y7087D01*
X151417Y4173D02*
X154331Y7087D01*
X120236Y4173D02*
X151417D01*
X117717Y6693D02*
X120236Y4173D01*
X117717Y6693D02*
Y8755D01*
X117805Y8843D01*
Y16447D01*
X114173Y20079D02*
X117805Y16447D01*
X120079Y29921D02*
X126772Y36614D01*
X35433Y33858D02*
X50911D01*
X55394Y100236D02*
X56693Y98937D01*
X60394Y110236D02*
X61811Y108819D01*
X59449Y40281D02*
Y59055D01*
Y40281D02*
X59842Y39887D01*
Y37278D02*
Y39887D01*
X59449Y36884D02*
X59842Y37278D01*
X59449Y29134D02*
Y36884D01*
X56693Y38583D02*
X57087Y38976D01*
X63386Y64961D02*
X63779Y65354D01*
X59449Y29134D02*
X62598Y25984D01*
X59449Y59055D02*
X60630Y60236D01*
X72565Y22835D02*
X84252Y34522D01*
X148819Y143701D02*
Y144488D01*
X142126Y137008D02*
X148819Y143701D01*
X100787Y92520D02*
X106097D01*
X98032Y89764D02*
X100787Y92520D01*
X110596D02*
X129798D01*
X109651Y93465D02*
X110596Y92520D01*
X107042Y93465D02*
X109651D01*
X106097Y92520D02*
X107042Y93465D01*
X129798Y92520D02*
X133735Y88583D01*
X99730Y98425D02*
X102092Y96063D01*
X97121Y98425D02*
X99730D01*
X145276Y88583D02*
X148032Y91338D01*
X133735Y88583D02*
X145276D01*
X61811Y41462D02*
X62598Y42250D01*
X61811Y38853D02*
Y41462D01*
Y38853D02*
X62598Y38065D01*
Y31496D02*
Y38065D01*
Y31496D02*
X62598Y31496D01*
X62992Y66142D02*
X63779Y65354D01*
X63386Y53150D02*
Y64961D01*
X62598Y52362D02*
X63386Y53150D01*
X74286Y53937D02*
X75714D01*
X72441Y52092D02*
X74286Y53937D01*
X72441Y50664D02*
Y52092D01*
X64961Y43183D02*
X72441Y50664D01*
X64961Y40157D02*
Y43183D01*
X87553Y55512D02*
X88583D01*
X75376Y43335D02*
X87553Y55512D01*
X75714Y53937D02*
X83465Y61687D01*
Y62750D01*
X78740Y50787D02*
X87008Y59055D01*
X88583Y55512D02*
X91339Y58268D01*
X78740Y49483D02*
Y50787D01*
X88368Y53543D02*
X92643D01*
X77345Y42520D02*
X88368Y53543D01*
X92643D02*
X96063Y56963D01*
X91339Y58268D02*
X92913D01*
X96063Y57750D02*
X96383Y58071D01*
X96063Y56963D02*
Y57750D01*
X96383Y58071D02*
X98228D01*
X84252Y34522D02*
Y41856D01*
X72835Y34128D02*
X77345Y38638D01*
Y42520D01*
X73622Y41581D02*
X75225Y43183D01*
X73622Y39370D02*
Y41581D01*
X76895Y47638D02*
X78740Y49483D01*
X74803Y47638D02*
X76895D01*
X34646Y70472D02*
X51575Y53543D01*
X34646Y70472D02*
Y97441D01*
X50787Y40157D02*
X54724Y44094D01*
X59842Y60236D02*
X60630D01*
X54724Y94910D02*
X56693Y96878D01*
Y94095D02*
X61811Y99213D01*
X56693Y58932D02*
Y94095D01*
X54724Y44094D02*
Y94910D01*
X56693Y58932D02*
X57087Y58538D01*
Y38976D02*
Y58538D01*
X62598Y42250D02*
Y52362D01*
X124668Y131361D02*
X130315Y137008D01*
X124533Y131496D02*
X124668Y131361D01*
X121924Y131496D02*
X124533D01*
X120079Y129651D02*
X121924Y131496D01*
X120079Y127042D02*
Y129651D01*
Y127042D02*
X120214Y126907D01*
X88189Y94882D02*
X120214Y126907D01*
X130315Y137008D02*
X142126D01*
X93307Y94612D02*
X97121Y98425D01*
X93307Y94488D02*
Y94612D01*
X18661Y97795D02*
X20968Y100101D01*
X18661Y92756D02*
Y97795D01*
X20968Y100101D02*
X22835Y101969D01*
X27598Y104488D02*
X34646Y97441D01*
X72835Y27559D02*
Y34128D01*
X146727Y38976D02*
X150787D01*
X145546Y37795D02*
X146727Y38976D01*
X131738D02*
X132526Y39764D01*
X123622Y38976D02*
X131738D01*
X120079Y35433D02*
X123622Y38976D01*
X133341Y37795D02*
X145546D01*
X143299Y39764D02*
X146446Y42910D01*
X24213Y53347D02*
X35433Y42126D01*
X24016Y53347D02*
Y67323D01*
Y53347D02*
X24213D01*
X13976D02*
X24016D01*
X11024Y50394D02*
X13976Y53347D01*
X84646Y42250D02*
Y44882D01*
X84252Y41856D02*
X84646Y42250D01*
X148032Y91338D02*
X148819D01*
X142226Y99132D02*
X145294Y96063D01*
X136547D02*
X139616Y99132D01*
X102092Y96063D02*
X136547D01*
X145294D02*
X146063D01*
X139616Y99132D02*
X142226D01*
X146063Y96063D02*
X146851Y96850D01*
X132526Y39764D02*
X143299D01*
X6693Y50394D02*
X11024D01*
X68110Y40945D02*
X74803Y47638D01*
X68110Y31102D02*
Y40945D01*
X24016Y67323D02*
X24409Y67716D01*
X61811Y99213D02*
Y108819D01*
X56693Y96878D02*
Y98937D01*
X18661Y92756D02*
X21654Y89764D01*
X146851Y96850D02*
X147637D01*
X131496Y64567D02*
X138976D01*
X119685Y52756D02*
X131496Y64567D01*
X132160Y36614D02*
X133341Y37795D01*
X126772Y36614D02*
X132160D01*
X134646Y24409D02*
Y34646D01*
Y24409D02*
X146457Y12598D01*
X30315Y17717D02*
Y25591D01*
X24532Y31373D02*
X30315Y25591D01*
X24532Y31373D02*
Y35433D01*
X22441Y111024D02*
X22835D01*
X21654Y79528D02*
Y89764D01*
Y79528D02*
X24409Y76772D01*
Y67716D02*
Y76772D01*
X68110Y31102D02*
X68110Y31102D01*
D64*
X121044Y18110D02*
X131890D01*
X117756Y21398D02*
X121044Y18110D01*
X115354Y25197D02*
X117756Y22795D01*
X143307Y144086D02*
Y144488D01*
X117756Y21398D02*
Y22795D01*
X83858Y98031D02*
X125984Y140157D01*
X139181Y139961D02*
X143307Y144086D01*
X136409Y139961D02*
X139181D01*
X136212Y140157D02*
X136409Y139961D01*
X125984Y140157D02*
X136212D01*
D66*
X124409Y121653D02*
X142520D01*
X105905Y103150D02*
X124409Y121653D01*
D68*
X8268Y78504D02*
D03*
X18268Y63504D02*
D03*
X8268Y68504D02*
D03*
X18268Y73504D02*
D03*
X17598Y104488D02*
D03*
X22598Y94488D02*
D03*
X27598Y104488D02*
D03*
X12598Y94488D02*
D03*
X51575Y110236D02*
D03*
X56575Y100236D02*
D03*
X61575Y110236D02*
D03*
X46575Y100236D02*
D03*
X131890Y18110D02*
D03*
X121890Y13110D02*
D03*
X131890Y8110D02*
D03*
X121890Y23110D02*
D03*
D69*
X6299Y7874D02*
D03*
Y33858D02*
D03*
D70*
X62992Y66142D02*
D03*
X48031Y88976D02*
D03*
X59842Y60236D02*
D03*
X37795Y88976D02*
D03*
X44488Y150000D02*
D03*
X41732Y163386D02*
D03*
X36614D02*
D03*
X27165Y163779D02*
D03*
X150394Y122441D02*
D03*
X163588Y109875D02*
D03*
X174803Y131102D02*
D03*
X148819Y65748D02*
D03*
X154724Y7087D02*
D03*
X120079Y29921D02*
D03*
X115354Y25197D02*
D03*
X114173Y20079D02*
D03*
X49606Y30709D02*
D03*
X56693Y38583D02*
D03*
X87795Y20472D02*
D03*
X50000Y24409D02*
D03*
X62598Y25984D02*
D03*
X141002Y149421D02*
D03*
X143307Y144488D02*
D03*
X148819Y144488D02*
D03*
X98032Y89764D02*
D03*
X83465Y62750D02*
D03*
X87008Y59055D02*
D03*
X78347Y61811D02*
D03*
X92913Y58268D02*
D03*
X98228Y58071D02*
D03*
X83858Y98031D02*
D03*
X51575Y53543D02*
D03*
X93307Y94488D02*
D03*
X129134Y43701D02*
D03*
X50787Y40157D02*
D03*
X64961D02*
D03*
X72835Y27559D02*
D03*
X121260Y42126D02*
D03*
X95669Y50394D02*
D03*
X148819Y91338D02*
D03*
X155511Y86220D02*
D03*
X123228Y128347D02*
D03*
X135433Y132283D02*
D03*
X137795Y143307D02*
D03*
X118110Y140157D02*
D03*
X136987Y92224D02*
D03*
X140921Y95982D02*
D03*
X6693Y55905D02*
D03*
X87402Y40551D02*
D03*
X80561Y40699D02*
D03*
X86221Y122441D02*
D03*
X114655Y10148D02*
D03*
X107087Y9665D02*
D03*
X125591Y164173D02*
D03*
X129921Y164961D02*
D03*
X31890Y162205D02*
D03*
X151181Y164961D02*
D03*
X142520D02*
D03*
X134252D02*
D03*
X69685Y64173D02*
D03*
X59646Y117323D02*
D03*
X80708Y122047D02*
D03*
X85384Y127953D02*
D03*
X30315Y17717D02*
D03*
X20017Y49545D02*
D03*
X84949Y45669D02*
D03*
X75590Y50787D02*
D03*
X73622Y39370D02*
D03*
X40157Y27953D02*
D03*
X78347Y96653D02*
D03*
X108268Y61811D02*
D03*
X95276Y10236D02*
D03*
X68504Y52756D02*
D03*
X46654Y45079D02*
D03*
X39370Y13780D02*
D03*
X20472Y14665D02*
D03*
X13780Y14567D02*
D03*
X136516Y83957D02*
D03*
X141732Y47244D02*
D03*
X146457Y49213D02*
D03*
X147244Y35039D02*
D03*
X133071Y105905D02*
D03*
X150000Y18898D02*
D03*
X145276Y73228D02*
D03*
X108346Y90315D02*
D03*
X129134Y105905D02*
D03*
X134646Y99213D02*
D03*
X146063Y127559D02*
D03*
X155315Y46260D02*
D03*
X170079Y143701D02*
D03*
X169986Y132877D02*
D03*
X178347Y131102D02*
D03*
X162430Y114628D02*
D03*
X142126Y104331D02*
D03*
X168504Y78740D02*
D03*
Y75590D02*
D03*
Y88976D02*
D03*
X168898Y92520D02*
D03*
X167717Y50394D02*
D03*
X168110Y38189D02*
D03*
Y33858D02*
D03*
X168189Y24478D02*
D03*
X168110Y19685D02*
D03*
X136774Y48249D02*
D03*
X128740Y48031D02*
D03*
X138583Y25591D02*
D03*
X8268Y111417D02*
D03*
X25984Y82284D02*
D03*
X42520Y17323D02*
D03*
X29921Y31496D02*
D03*
X15354Y42126D02*
D03*
X146063Y157874D02*
D03*
X151181D02*
D03*
X154724Y157480D02*
D03*
X159449Y157087D02*
D03*
X158661Y12205D02*
D03*
X159842Y122441D02*
D03*
X64961Y129134D02*
D03*
X58268Y124803D02*
D03*
Y129528D02*
D03*
X61417Y124803D02*
D03*
X27559Y159449D02*
D03*
X37008Y159055D02*
D03*
X42126Y159449D02*
D03*
X29921Y156299D02*
D03*
X42520Y153150D02*
D03*
X25984Y149606D02*
D03*
X148819Y103543D02*
D03*
X147637Y96850D02*
D03*
X158268Y67323D02*
D03*
X38976Y149606D02*
D03*
X30315D02*
D03*
X34646D02*
D03*
X39370Y155905D02*
D03*
X37008Y152756D02*
D03*
X32283D02*
D03*
X34646Y155512D02*
D03*
X25984D02*
D03*
X28346Y152362D02*
D03*
X157480Y136614D02*
D03*
X157480Y140551D02*
D03*
X105905Y103150D02*
D03*
X142520Y121653D02*
D03*
X150000Y112205D02*
D03*
X142913Y113779D02*
D03*
X134646Y114173D02*
D03*
X138976Y64567D02*
D03*
X119685Y52756D02*
D03*
X155512Y82284D02*
D03*
X146446Y42910D02*
D03*
X150787Y38976D02*
D03*
X134646Y34646D02*
D03*
X140157Y54331D02*
D03*
Y58268D02*
D03*
X156496Y55905D02*
D03*
X157087Y59842D02*
D03*
X155709Y30709D02*
D03*
X155511Y26772D02*
D03*
X146457Y12598D02*
D03*
X120079Y35433D02*
D03*
X88189Y94882D02*
D03*
X24532Y35433D02*
D03*
X24409Y67716D02*
D03*
X22441Y111024D02*
D03*
X68110Y31102D02*
D03*
X62598Y31496D02*
D03*
X35433Y18504D02*
D03*
X6693Y50394D02*
D03*
D71*
X185039Y161417D02*
D03*
X11811D02*
D03*
M02*
